# xmcd
#
# Track frame offsets:
#	150
#	17483
#	32641
#	47078
#	59741
#	77383
#	90773
#	106964
#	128745
#	146138
#	161016
#	179414
#	194063
#	209600
#	225394
#	240676
#	257179
#	275311
#
# Disc length: 3896 seconds
#
# Revision: 1
# Processed by: cddbd v1.5.1PL2 Copyright (c) Steve Scherf et al.
# Submitted via: audiograbber 1.83.01
#
DISCID=f70f3612
DTITLE=Bellamy Brothers - Let Your Love Flow
DYEAR=1998
DGENRE=Country
TTITLE0=Let's Fall In Love Again
TTITLE1=I Could Be Persuaded
TTITLE2=Big Love
TTITLE3=Let Your Love Flow
TTITLE4=Sweet Nostalgia
TTITLE5=Do You Love As Good As You Look
TTITLE6=Crazy From The Heart
TTITLE7=If I Said You Had A Beautiful Body (Would You Hold It Against Me)
TTITLE8=The Strength Of The Weaker Sex
TTITLE9=Lovers Live Longer
TTITLE10=I'll Give You All My Love Tonight
TTITLE11=Stayin' In Love
TTITLE12=I'd Lie To You For Your Love
TTITLE13=Everybody's Somebody's Darlin'
TTITLE14=The Center Of My Universe
TTITLE15=Tough Love
TTITLE16=We Don't Want To Go For It
TTITLE17=Save Your Love
EXTD=
EXTT0=
EXTT1=
EXTT2=
EXTT3=
EXTT4=
EXTT5=
EXTT6=
EXTT7=
EXTT8=
EXTT9=
EXTT10=
EXTT11=
EXTT12=
EXTT13=
EXTT14=
EXTT15=
EXTT16=
EXTT17=
PLAYORDER=
